<?xml version="1.0" encoding="utf-8"?>
<!-- Generator: Adobe Illustrator 23.0.1, SVG Export Plug-In . SVG Version: 6.00 Build 0)  -->
<svg version="1.1" id="Layer_1" xmlns="http://www.w3.org/2000/svg" xmlns:xlink="http://www.w3.org/1999/xlink" x="0px" y="0px"
	 viewBox="0 0 121.7 122.9" style="enable-background:new 0 0 121.7 122.9;" xml:space="preserve">
<style type="text/css">
	.st0{opacity:0.5;fill:#FFFFFF;}
</style>
<g>
	<path class="st0" d="M53.6,0c14.8,0,28.2,6,37.9,15.7c9.7,9.7,15.7,23.1,15.7,37.9c0,10.8-3.2,20.9-8.7,29.4l23.2,25.3l-16,14.6
		L83.3,98.3c-8.5,5.7-18.7,9-29.7,9c-14.8,0-28.2-6-37.9-15.7C6,81.8,0,68.4,0,53.6c0-14.8,6-28.2,15.7-37.9C25.4,6,38.8,0,53.6,0
		L53.6,0L53.6,0z M54.7,41.2l1.5-5.7l-8.5-3l17.2-9.2l9.1,17.4l-9-2.8l-1.3,6L54.7,41.2L54.7,41.2z M83.2,82H29.7
		c-1.1,0-2.1-0.4-2.9-1.2c-0.7-0.7-1.2-1.7-1.2-2.8l0-42.9h6.1v40.8h51.5V82L83.2,82z M69.9,53.3h7.8c0.4,0,0.8,0.4,0.8,0.8v16.1
		c0,0.4-0.4,0.8-0.8,0.8h-7.8c-0.4,0-0.8-0.4-0.8-0.8V54.1C69.1,53.7,69.5,53.3,69.9,53.3L69.9,53.3L69.9,53.3z M39.4,43.4h7.8
		c0.4,0,0.8,0.4,0.8,0.8v26c0,0.4-0.4,0.8-0.8,0.8h-7.8c-0.4,0-0.8-0.4-0.8-0.8v-26C38.6,43.8,38.9,43.4,39.4,43.4L39.4,43.4
		L39.4,43.4L39.4,43.4z M63.4,48.7v21.6c0,0.4-0.4,0.8-0.8,0.8h-7.7c-0.4,0-0.8-0.4-0.8-0.8V46l8.4,2.5c0.1,0,0.3,0.1,0.4,0.1
		C63,48.6,63.2,48.7,63.4,48.7L63.4,48.7z M87.3,19.9C78.7,11.3,66.8,6,53.6,6s-25.1,5.3-33.7,14C11.3,28.5,6,40.5,6,53.6
		c0,13.1,5.3,25.1,14,33.7s20.5,13.9,33.7,13.9c13.2,0,25.1-5.3,33.7-13.9s13.9-20.5,13.9-33.7C101.3,40.5,95.9,28.5,87.3,19.9
		L87.3,19.9L87.3,19.9z"/>
</g>
</svg>
