<?xml version="1.0" encoding="utf-8"?>
<!-- Generator: Adobe Illustrator 23.0.1, SVG Export Plug-In . SVG Version: 6.00 Build 0)  -->
<svg version="1.1" id="Layer_1" xmlns="http://www.w3.org/2000/svg" xmlns:xlink="http://www.w3.org/1999/xlink" x="0px" y="0px"
	 viewBox="0 0 122.9 112.9" style="enable-background:new 0 0 122.9 112.9;" xml:space="preserve">
<style type="text/css">
	.st0{opacity:0.5;fill-rule:evenodd;clip-rule:evenodd;fill:#FFFFFF;}
</style>
<g>
	<path class="st0" d="M62,21.7c4.9,0,9.6,0.9,14,2.6c-0.2,0.1-0.3,0.3-0.5,0.5l0,0c-0.5,0.5-1,1-1.4,1.5c-0.4-0.2-0.8-0.3-1.3-0.5
		l0,0l-4.8,1.4V26h-0.8l0,1.2l-1.9,0.5l-0.2,0.9l-2.5-2.1l3.4,0.4c-0.6-0.8-4.2-2.1-5.5-2.1H59c-1.4,0-5.7,3.6-7.7,4.7l0.5,2.2
		l2.5-0.5l0.4,1.8l-1.6-1c0,0-0.4,0.8-0.4,0.8c0,1,0.1,0.5,0.3,1.4l-5.7,2.6c-0.2-0.5-0.3-1-0.5-1.5h0c-1.2-3-3-5.6-5.2-7.7l0,0
		l-0.1-0.1C47.3,23.8,54.4,21.7,62,21.7L62,21.7L62,21.7z M61.5,78.2c4.8,0,9.1,1.9,12.3,5.1c3.1,3.1,5.1,7.5,5.1,12.3
		c0,4.8-1.9,9.1-5.1,12.3c-3.1,3.1-7.5,5.1-12.3,5.1c-4.8,0-9.1-1.9-12.3-5.1c-3.1-3.1-5.1-7.5-5.1-12.3c0-4.8,1.9-9.1,5.1-12.3
		C52.3,80.1,56.7,78.2,61.5,78.2L61.5,78.2z M24.6,27.1c4.8,0,9.1,1.9,12.3,5.1C40,35.3,42,39.7,42,44.5c0,4.8-1.9,9.1-5.1,12.3
		c-3.1,3.1-7.5,5.1-12.3,5.1c-4.8,0-9.1-2-12.3-5.1s-5.1-7.5-5.1-12.3s1.9-9.1,5.1-12.3C15.4,29,19.8,27.1,24.6,27.1L24.6,27.1z
		 M31.2,39.9l-4.3,0.7c-0.2-0.5-0.4-0.9-0.6-1.1c-0.2-0.2-0.5-0.4-0.9-0.6v3.3c2.3,0.6,3.9,1.3,4.7,2c1,0.9,1.5,2.1,1.5,3.5
		c0,0.8-0.2,1.6-0.6,2.3c-0.4,0.7-0.9,1.3-1.4,1.8s-1.2,0.8-1.9,1c-0.6,0.2-1.5,0.3-2.4,0.4v1.5h-1.7v-1.5c-1.1-0.1-2-0.3-2.8-0.5
		c-0.7-0.3-1.3-0.6-1.8-1.1c-0.5-0.5-0.9-1-1.2-1.5s-0.5-1.2-0.6-2l4.6-0.5c0.1,0.8,0.3,1.3,0.6,1.6c0.2,0.3,0.6,0.6,1.2,0.9v-4.1
		c-1.6-0.4-2.7-0.8-3.3-1.1c-0.6-0.3-1.2-0.8-1.7-1.5c-0.5-0.7-0.7-1.5-0.7-2.5c0-1.4,0.5-2.5,1.4-3.4c1-0.9,2.4-1.4,4.3-1.5v-1.5
		h1.7v1.5c1.7,0.1,3,0.5,4,1.2C30.4,37.7,31,38.7,31.2,39.9L31.2,39.9L31.2,39.9z M23.8,38.8c-0.5,0.2-0.8,0.4-1,0.6
		c-0.2,0.2-0.3,0.5-0.3,0.8c0,0.3,0.1,0.6,0.3,0.9c0.2,0.3,0.5,0.5,1,0.6V38.8L23.8,38.8L23.8,38.8z M25.5,50.1
		c0.6-0.2,1.1-0.4,1.4-0.7c0.3-0.3,0.5-0.7,0.5-1.1c0-0.4-0.1-0.7-0.4-1s-0.8-0.6-1.5-0.8V50.1L25.5,50.1L25.5,50.1z M92.3,24.2
		c4.8,0,9.1,1.9,12.3,5.1c3.1,3.1,5.1,7.5,5.1,12.3c0,4.8-1.9,9.1-5.1,12.3C101.4,57,97.1,59,92.3,59c-4.8,0-9.1-1.9-12.3-5.1
		c-3.1-3.1-5.1-7.5-5.1-12.3s1.9-9.1,5.1-12.3C83.2,26.2,87.5,24.2,92.3,24.2L92.3,24.2z M91.6,39.8h3.6v2.8H92
		c0,0.7-0.2,1.3-0.4,1.8c-0.2,0.4-0.4,0.8-0.8,1.3c0.4-0.1,0.8-0.1,1.1-0.1c0.4,0,0.9,0.1,1.6,0.2c0.9,0.2,1.6,0.3,2.1,0.3
		c0.4,0,0.8,0,1.1-0.1s0.7-0.2,1.3-0.5l1.6,3.5c-0.8,0.4-1.5,0.7-2.1,0.8c-0.6,0.2-1.2,0.2-1.9,0.2c-0.7,0-1.6-0.1-2.5-0.4
		c-1.3-0.3-2-0.5-2.3-0.6c-0.3,0-0.6-0.1-1-0.1c-1,0-2.1,0.3-3.4,1.1l-1.5-3.4c1.7-1.2,2.5-2.4,2.5-3.6c0-0.1,0-0.2,0-0.5h-2.5v-2.8
		h1.8c-0.3-1-0.5-1.6-0.5-1.8c-0.1-0.3-0.1-0.6-0.1-0.9c0-1,0.3-1.9,0.8-2.7c0.5-0.8,1.2-1.3,2.1-1.7c0.8-0.3,2-0.5,3.4-0.5
		c1.3,0,2.4,0.2,3.2,0.5c0.8,0.3,1.5,0.8,2,1.5c0.6,0.7,0.9,1.6,1.1,2.6l-4.5,0.7c-0.2-0.8-0.5-1.4-0.8-1.7c-0.3-0.3-0.6-0.4-1-0.4
		c-0.5,0-0.8,0.2-1.1,0.5S91,36.5,91,37c0,0.3,0,0.6,0.1,0.8C91.1,38.2,91.3,38.8,91.6,39.8L91.6,39.8L91.6,39.8z M64.3,98.3h-3.9
		c0,1.1,0.3,1.9,0.9,2.4s1.5,0.8,2.7,0.8c0.8,0,1.6-0.1,2.2-0.4l0.5,3.3c-1.1,0.3-2.2,0.4-3.3,0.4c-2.2,0-4-0.6-5.3-1.7
		c-1.3-1.2-2-2.8-2.1-4.8h-2v-2h2v-1.5h-2v-2h2.1c0.2-2.1,0.9-3.7,2.3-4.8c1.4-1.2,3.2-1.7,5.5-1.7c0.9,0,1.8,0.1,2.9,0.4L66.2,90
		c-0.7-0.3-1.3-0.4-2.1-0.4c-1.2,0-2,0.3-2.6,0.8c-0.6,0.5-1,1.3-1.1,2.4h3.8v2h-3.9v1.5h3.9V98.3L64.3,98.3L64.3,98.3z M117.4,74.4
		l1.9,3.1c0.6,1,1.9,1.3,2.8,0.7c3-1.9-4.5-11.7-5.8-11.8c-0.6-0.1-1.2,0.2-1.6,0.6l-6.7,6.8c-0.8,0.8-0.8,2.1,0,2.9s2.1,0.8,2.9,0
		l2.3-2.3c-1.2,5.5-3.3,10.6-6,15.1c-3.9,6.4-9.1,11.5-14.8,14.6c-1,0.5-1.4,1.8-0.8,2.8s1.8,1.4,2.8,0.8c6.3-3.4,12.1-9,16.4-16.1
		C113.8,86.5,116.2,80.7,117.4,74.4L117.4,74.4L117.4,74.4L117.4,74.4z M77.5,6.2L75.8,3c-0.5-1-0.2-2.2,0.8-2.8
		c3.2-1.7,7.8,9.8,7.3,11c-0.3,0.6-0.8,1-1.3,1.1l-9.3,2.4c-1.1,0.3-2.2-0.4-2.5-1.5s0.4-2.2,1.5-2.5l3.2-0.8
		c-5.3-1.7-10.8-2.5-16-2.4C51.9,7.7,44.9,9.6,39.3,13c-1,0.6-2.2,0.3-2.8-0.7c-0.6-1-0.3-2.2,0.7-2.8c6.1-3.8,13.9-5.9,22.1-6.1
		C65.2,3.2,71.4,4.1,77.5,6.2L77.5,6.2L77.5,6.2L77.5,6.2z M5.5,74.4l-1.9,3.1c-0.6,1-1.9,1.3-2.8,0.7c-3-1.9,4.5-11.7,5.8-11.8
		c0.6-0.1,1.2,0.2,1.6,0.6l6.7,6.8c0.8,0.8,0.8,2.1,0,2.9c-0.8,0.8-2.1,0.8-2.9,0l-2.3-2.3c1.2,5.5,3.3,10.6,6,15.1
		c3.9,6.4,9.1,11.5,14.8,14.6c1,0.5,1.4,1.8,0.8,2.8s-1.8,1.4-2.8,0.8c-6.3-3.4-12.1-9-16.4-16.1C9,86.5,6.7,80.7,5.5,74.4L5.5,74.4
		L5.5,74.4L5.5,74.4z M101.1,63.7c-0.8,11.9-6.9,22.3-16,28.9c-0.3-2.2-0.8-4.2-1.6-6.2h0c-1.2-2.9-3-5.6-5.2-7.7l0,0
		c-2.2-2.2-4.8-4-7.7-5.2v0c-0.9-0.4-1.9-0.7-2.8-1c1.8-2.7,5.6-6.9,5.7-10.4c-1.8,0.2-0.9,0.4-2.6,0.4c-0.8,0-0.7-0.6-0.8-1.3
		c1.7-0.4,3.8-1.4,5.4-2.9l0,0l0,0c2.2,2.2,4.8,4,7.7,5.2c2.8,1.2,5.9,1.8,9.1,1.8C95.4,65.4,98.4,64.8,101.1,63.7L101.1,63.7z
		 M37.9,91.9c-7.4-5.8-12.7-14.1-14.5-23.7c0.4,0,0.8,0,1.2,0c3.2,0,6.3-0.7,9.1-1.8v0c2.7-1.1,5.2-2.7,7.3-4.7
		c0.8,1.6,2.7,4.7,3.9,4.7h1.7c1.9,0,1.5-0.8,3.4-0.8h0.4c1.2,0,1,0.3,1.3,1.3h1.7v3.4c0,0.3,0.6,1.3,1.2,2.4
		c-0.8,0.2-1.5,0.5-2.3,0.8v0c-2.9,1.2-5.5,3-7.7,5.2l0,0c-2.2,2.2-4,4.8-5.2,7.7h0C38.7,88.2,38.2,90,37.9,91.9L37.9,91.9z
		 M48.4,45.8c0.9-0.4,1-1.1,2-1.1h3.8v3l4.2,1.8l0.4-1.8c1.9,0.5,2.4,1.3,4.8,1.3h0.8c1.6,0,1.7-2.2,1.7-3.8l-3.4,0.3l-1.5-3.2
		l-1.5,0.4c0.3,1.2,0.4,0.7,0.4,1.7c0,0.6-0.5,0.6-0.8,0.8l-1.5-3.8l-3.2-2.3l-0.4,0.4l2.7,2.8c-0.4,1-0.4,4-1.9,1.9l1.4-0.7L53,40
		L51,40.8l-2,2c-0.1,0.7-0.2,1.2-0.5,1.6v0.1C48.4,44.9,48.4,45.3,48.4,45.8L48.4,45.8z M48.1,40.5h0.2l-0.4-0.9
		C48,39.9,48,40.2,48.1,40.5L48.1,40.5z M30.2,81.2c-2.3-3.5-4-7.4-5.1-11.6l6.9,3.3l0,2.1c0,0.8-1.3,2.4-1.7,3L30.2,81.2L30.2,81.2
		L30.2,81.2z"/>
</g>
</svg>
